Coordinates
version=1
nRows=15
nColumns=19
inDegrees=yes

Units are S.I. units (second, meters, Newtons, ...)
If the header above contains a line with 'inDegrees', this indicates whether rotational values are in degrees (yes) or radians (no).

endheader
time	pelvis_tilt	pelvis_list	pelvis_rotation	pelvis_tx	pelvis_ty	pelvis_tz	hip_flexion_r	hip_adduction_r	hip_rotation_r	knee_angle_r	knee_angle_r_beta	ankle_angle_r	hip_flexion_l	hip_adduction_l	hip_rotation_l	knee_angle_l	knee_angle_l_beta	ankle_angle_l
     13.62666667	    -15.60049432	     11.83198132	      2.83790909	      2.08105398	      0.91227173	      1.00885012	    -14.14447286	    -17.08383885	    -11.51896848	     56.02353370	      0.97779512	    -16.38280269	     44.53181613	     13.66380485	    -17.35124849	     16.52820896	      0.28847167	      8.49807273
     13.63333333	    -15.43018573	     12.33096507	      2.98538904	      2.08090195	      0.90835353	      1.00900766	    -12.88346477	    -17.63472798	    -10.48592410	     60.66662597	      1.05883237	    -16.53753716	     44.32205380	     13.94554021	    -18.57413955	     18.41219005	      0.32135334	      8.13648334
     13.64000000	    -15.23772961	     12.76774719	      3.22330260	      2.08070392	      0.90421095	      1.00936293	    -11.56329561	    -18.03743319	     -9.55009460	     65.24459525	      1.13873301	    -16.59331065	     44.21498738	     14.08133963	    -19.75345584	     21.08763279	      0.36804862	      7.84236880
     13.64666667	    -14.94522429	     13.11320362	      3.52789752	      2.08041575	      0.90000986	      1.00980297	    -10.26563875	    -18.30012832	     -8.74055751	     69.70708915	      1.21661822	    -16.53505364	     44.01356464	     14.11640179	    -20.69207366	     24.22531001	      0.42281142	      7.66050487
     13.65333333	    -14.53195289	     13.39097733	      3.79630186	      2.08001750	      0.89591146	      1.01043719	     -8.95484517	    -18.45737200	     -7.92390627	     74.04832773	      1.29238712	    -16.35672414	     43.62904297	     14.06725034	    -21.34201335	     27.58196860	      0.48139617	      7.71951101
     13.66000000	    -14.20971711	     13.49756071	      4.17993654	      2.07941618	      0.89174125	      1.01102374	     -7.43175965	    -18.42966117	     -7.22529781	     78.26382468	      1.36596143	    -16.03866912	     43.26100139	     13.98019938	    -21.49262363	     31.03853731	      0.54172467	      8.12348769
     13.66666667	    -13.50011805	     13.73510825	      4.64584350	      2.07876195	      0.88812006	      1.01144302	     -6.34148791	    -18.59823761	     -6.86299637	     82.22767074	      1.43514359	    -15.53670806	     42.30788259	     14.19583499	    -21.27804140	     34.33575606	      0.59927199	      8.97565593
     13.67333333	    -13.56986669	     13.34015050	      5.03509557	      2.07731627	      0.88417826	      1.01187507	     -3.89018918	    -18.03161545	     -5.88706238	     86.20956886	      1.50464082	    -15.09558311	     42.13561636	     13.87204660	    -20.50363326	     37.58294304	      0.65594610	     10.21472125
     13.68000000	    -13.00775279	     13.21549219	      5.47258155	      2.07589758	      0.88129853	      1.01208824	     -2.18138573	    -17.85991720	     -5.35658394	     89.83553323	      1.56792584	    -14.46850803	     41.02374638	     13.99056022	    -19.54862905	     40.40994258	      0.70528655	     11.90676609
     13.68666667	    -13.04723219	     12.62749960	      5.94468178	      2.07388764	      0.87836239	      1.01210462	      0.53834287	    -17.13967418	     -4.50864013	     93.32172805	      1.62877142	    -13.98234909	     40.45052391	     13.80084222	    -18.17894646	     43.06475035	      0.75162169	     13.90885715
     13.69333333	    -12.89674638	     12.10607223	      6.37406567	      2.07174899	      0.87625518	      1.01196298	      3.16801463	    -16.58410197	     -3.77151438	     96.49015135	      1.68407084	    -13.41756984	     39.39896118	     13.74178014	    -16.74892161	     45.22884479	      0.78939226	     16.13067624
     13.70000000	    -12.75621911	     11.51457429	      6.72619116	      2.06945307	      0.87482916	      1.01175761	      5.98924966	    -15.96891005	     -2.97396249	     99.33841655	      1.73378244	    -12.81183757	     38.10574283	     13.62626132	    -15.27387059	     46.93985921	      0.81925509	     18.42091561
     13.70666667	    -12.63500642	     10.84434620	      6.99783295	      2.06710345	      0.87405847	      1.01149301	      8.98003305	    -15.28316924	     -2.15004212	    101.82236394	      1.77713550	    -12.22522721	     36.57809846	     13.40719193	    -13.80254043	     48.19354130	      0.84113597	     20.66326720
     13.71333333	    -12.47666366	     10.14223991	      7.16246941	      2.06485514	      0.87398490	      1.01122653	     12.02925401	    -14.56611867	     -1.32123007	    103.89911679	      1.81338168	    -11.64507422	     34.75000581	     13.08533508	    -12.41054917	     48.97763738	      0.85482103	     22.74516738
     13.72000000	    -12.31799669	      9.40402860	      7.23740128	      2.06276453	      0.87458460	      1.01095663	     15.12373089	    -13.80442901	     -0.53285325	    105.53639427	      1.84195756	    -11.02710075	     32.66151123	     12.64567149	    -11.11086017	     49.27548033	      0.86001937	     24.52729530
